<?xml version="1.0" standalone="no"?><!DOCTYPE svg PUBLIC "-//W3C//DTD SVG 1.1//EN" "http://www.w3.org/Graphics/SVG/1.1/DTD/svg11.dtd" [<!ENTITY nbsp "&#160;">]><svg xmlns="http://www.w3.org/2000/svg" version="1.1" width="480" viewBox="0 0 480 368.8616943359375" class="Exsurge ChantScore" xmlns:xlink="http://www.w3.org/1999/xlink" height="368.8616943359375"><defs><style type="text/css"><![CDATA[

svg.Exsurge .title{fill: rgb(0, 0, 0); font-family: Garamond Premier Pro; font-size: 26.6667px; font-kerning: normal;}

svg.Exsurge .subtitle{fill: rgb(0, 0, 0); font-family: Garamond Premier Pro; font-size: 17.7778px; font-kerning: normal;}

svg.Exsurge .textLeftRight{fill: rgb(0, 0, 0); font-family: Garamond Premier Pro; font-size: 16px; font-kerning: normal;}

svg.Exsurge .annotation{fill: rgb(0, 0, 0); font-family: Garamond Premier Pro; font-size: 11.8519px; font-kerning: normal;}

svg.Exsurge .dropCap{fill: rgb(0, 0, 0); font-family: Garamond Premier Pro; font-size: 71.1111px; font-kerning: normal;}

svg.Exsurge .lyric{fill: rgb(0, 0, 0); font-family: Garamond Premier Pro; font-size: 16px; font-kerning: normal;}

]]></style></defs><g><defs><g id="DoClef" transform="scale(0.05925925925925926)" class="glyph"><path d="M0 98.406V-97.688C0-118 5.99-134.275 17.97-146.516c11.978-12.24 27.603-18.36 46.874-18.36 10.937 0 19.53 3.126 25.78 9.376s9.376 14.583 9.376 25v107.813l-6.25-5.47c-4.167-3.645-10.287-7.42-18.36-11.327-8.072-3.907-16.796-5.86-26.17-5.86-11.46 0-21.486 4.427-30.08 13.282-8.593 8.854-12.89 19.53-12.89 32.03s4.297 23.308 12.89 32.423c8.594 9.115 18.62 13.672 30.08 13.672 9.374 0 18.098-1.822 26.17-5.468 8.073-3.646 14.193-7.292 18.36-10.938l6.25-6.25V132c0 9.896-3.125 18.1-9.375 24.61-6.25 6.51-14.844 9.765-25.78 9.765-19.272 0-34.897-6.25-46.876-18.75C5.99 135.125 0 118.72 0 98.405z"></path></g><g id="PunctumQuadratum" transform="scale(0.05925925925925926)" class="glyph"><path d="M0-60.906c33.333 0 50 9.635 50 28.906v94.53C39.062 51.595 22.396 46.126 0 46.126s-39.063 5.47-50 16.406V-32c0-19.27 16.667-28.906 50-28.906z"></path></g><g id="None" transform="scale(0.05925925925925926)" class="glyph"><g></g></g><g id="PodatusLower" transform="scale(0.05925925925925926)" class="glyph"><path d="M-4.688-30.28c22.396 0 34.636-.262 36.72-.782 5.728-1.563 8.593-5.21 8.593-10.938H50v97.656c0 2.604-1.302 4.167-3.906 4.688-5.21.52-21.355.78-48.438.78-23.958 0-38.54-.26-43.75-.78-2.604 0-3.906-1.302-3.906-3.906v-82.032c0-3.646 1.302-5.468 3.906-5.468h2.344c2.604.52 15.625.78 39.063.78z"></path></g><g id="PodatusUpper" transform="scale(0.05925925925925926)" class="glyph"><path d="M-46.094-63.78c13.542 0 24.61 2.473 33.203 7.42C-4.298-51.41 0-43.99 0-34.093V62h-9.375c0-10.938-2.604-19.14-7.812-24.61-5.21-5.468-14.844-8.203-28.907-8.202-18.23 0-33.333 4.166-45.312 12.5v-75.782c0-19.79 15.104-29.687 45.312-29.687z"></path></g><g id="CustosLong" transform="scale(0.05925925925925926)" class="glyph"><path d="M39.063-269.562c5.73-.52 7.29 6.25 4.687 20.312V69.5c-13.542-2.083-24.22-5.47-32.03-10.156C3.905 54.134 0 47.624 0 39.812V-68c5.73 5.208 10.677 8.594 14.844 10.156 5.73 1.563 12.24 2.344 19.53 2.344v-196.875c0-11.458 1.563-17.187 4.688-17.187z"></path></g><g id="CustosShort" transform="scale(0.05925925925925926)" class="glyph"><path d="M34.375-188.125c0-8.333 1.563-12.24 4.688-11.72 3.125.522 4.687 7.033 4.687 19.532v250c-13.542-2.083-24.22-5.468-32.03-10.156C3.905 54.324 0 47.813 0 40V-67.813c5.73 5.21 10.677 8.594 14.844 10.157 5.73 1.562 12.24 2.344 19.53 2.343v-132.812z"></path></g><g id="PunctumInclinatum" transform="scale(0.05925925925925926)" class="glyph"><path d="M0-75.78L50 0 0 75-50 0 0-75.78z"></path></g><g id="CustosDescShort" transform="scale(0.05925925925925926)" class="glyph"><path d="M34.375 191.923c0 8.333 1.563 12.24 4.688 11.72 3.125-.522 4.687-7.033 4.687-19.533v-250c-13.542 2.084-24.22 5.47-32.03 10.157C3.905-50.525 0-44.015 0-36.203V71.61c5.73-5.208 10.677-8.593 14.844-10.156 5.73-1.562 12.24-2.344 19.53-2.344v132.813z"></path></g><g id="CustosDescLong" transform="scale(0.05925925925925926)" class="glyph"><path d="M39.063 273.472c5.73.52 7.29-6.25 4.687-20.312V-65.59c-13.542 2.083-24.22 5.468-32.03 10.156C3.905-50.226 0-43.714 0-35.904V71.91c5.73-5.21 10.677-8.594 14.844-10.157 5.73-1.562 12.24-2.343 19.53-2.343v196.875c0 11.458 1.563 17.187 4.688 17.187"></path></g><g id="PunctumCavum" transform="scale(0.05925925925925926)" class="glyph"><path d="M0-60.906c33.333 0 50 9.635 50 28.906v94.53C39.062 51.595 22.396 46.126 0 46.126s-39.063 5.47-50 16.406V-32c0-19.27 16.667-28.906 50-28.906z"></path><path d="M.08-42.56c9.585.206 20.126.53 27.954 6.822 4.96 3.9 4.71 10.792 4.574 16.482v51.278C22.09 27.066 7.283 26.072.168 26.01c-7.72.23-21.895.935-32.616 4.674.04-19.197-.083-38.395.064-57.59.567-7.5 7.834-12.33 14.62-13.774 5.818-1.498 11.857-1.86 17.844-1.88z" fill="#fff"></path></g><g id="Mora" transform="scale(0.05925925925925926)" class="glyph"><path d="M47.478-24c6.957 0 12.793 2.288 17.49 6.883C69.662-12.52 72-6.904 72-.267c0 6.64-2.337 12.352-7.033 17.118C60.27 21.618 54.435 24 47.477 24c-6.26 0-11.748-2.383-16.444-7.15C26.337 12.086 24 6.374 24-.265c0-6.638 2.337-12.255 7.033-16.85C35.73-21.713 41.217-24 47.478-24z"></path></g><style>svg.Exsurge .supertitle{fill:#000000;font-family:EB Garamond;font-size:20.740740740740744px;font-kerning:normal}svg.Exsurge .title{fill:#000000;font-family:EB Garamond;font-size:21.333333333333336px;font-kerning:normal}svg.Exsurge .subtitle{fill:#000000;font-family:EB Garamond;font-size:17.77777777777778px;font-kerning:normal}svg.Exsurge .textLeftRight{fill:#000000;font-family:EB Garamond;font-size:16px;font-kerning:normal}svg.Exsurge .annotation{fill:#000000;font-family:EB Garamond;font-size:11.851851851851853px;font-kerning:normal}svg.Exsurge .dropCap{fill:#000000;font-family:EB Garamond;font-size:71.11111111111111px;font-kerning:normal}svg.Exsurge .aboveLinesText{fill:#000000;font-family:EB Garamond;font-size:17.77777777777778px;font-kerning:normal}svg.Exsurge .choralSign{fill:#000000;font-family:EB Garamond;font-size:8.88888888888889px;font-kerning:normal}svg.Exsurge .lyric{fill:#000000;font-family:EB Garamond;font-size:16px;font-kerning:normal}svg.Exsurge .translation{fill:#000000;font-family:EB Garamond;font-size:13.333333333333334px;font-kerning:normal}</style></defs><g class="Titles"><text x="0" y="14.747500610351562" class="title" text-anchor="start"><tspan style="">INTROITUS</tspan></text><text x="240" y="28.230788054289643" class="subtitle" text-anchor="middle"></text><text x="0" y="45.500714224356194" class="textLeft textLeftRight" text-anchor="start"><tspan style="font-style: italic;">Ad te levavi</tspan></text><text x="480" y="45.48471487539786" class="textRight textLeftRight" text-anchor="end"><tspan style="font-style: italic;">Пс 25 (24): 1-3</tspan></text></g><g transform="translate(0,102.89383494059246)" class="chantLine"><g class="staffLines"><rect x="62.546851069838915" y="-17.77777777777778" width="417.4531489301611" height="35.55555555555556" fill="none"></rect><line x1="62.546851069838915" y1="-17.77777777777778" x2="480" y2="-17.77777777777778" stroke="#000000" class="staffLine" stroke-width="0.8"></line><line x1="62.546851069838915" y1="-5.9259259259259265" x2="480" y2="-5.9259259259259265" stroke="#000000" class="staffLine" stroke-width="0.8"></line><line x1="62.546851069838915" y1="5.9259259259259265" x2="480" y2="5.9259259259259265" stroke="#000000" class="staffLine" stroke-width="0.8"></line><line x1="62.546851069838915" y1="17.77777777777778" x2="480" y2="17.77777777777778" stroke="#000000" class="staffLine" stroke-width="0.8"></line></g><text x="31.273425534919458" y="35.51229666250724" class="dropCap" text-anchor="middle"><tspan>Д</tspan></text><text x="31.273425534919458" y="-42.993303821705005" class="annotation" text-anchor="middle"></text><text x="31.273425534919458" y="-29.956266784667967" class="annotation" text-anchor="middle"></text><text x="31.273425534919458" y="-16.919229747630926" class="annotation" text-anchor="middle"><tspan style="fill: rgb(229, 2, 0);" class="rubric">VIII</tspan></text><g transform="translate(62.546851069838915,0)" class="ChantNotationElement t"><g class="Notations"><use x="0" y="-5.925925925925926" class="" xlink:href="#DoClef"></use></g></g><g transform="translate(80.91412752605966,0)" class="ChantNotationElement t"><text x="-0.22870364012541566" y="35.51229666250724" class="lyric" text-anchor="start"><tspan>а</tspan></text><g class="Notations"><use id="note-1" x="2.9629629629629632" y="11.851851851851853" class=" note" xlink:href="#PunctumQuadratum"></use></g></g><g transform="translate(99.660598847154,0)" class="ChantNotationElement t"><text x="-6.828704021595142" y="35.51229666250724" class="lyric" text-anchor="start"><tspan>Ця</tspan></text><g class="Notations"><use id="note-2" x="2.9629629629629632" y="11.851851851851853" class=" note" xlink:href="#PunctumQuadratum"></use></g></g><g transform="translate(118.19393262553535,0)" class="ChantNotationElement t"><text x="-5.7787038308602785" y="35.51229666250724" class="lyric" text-anchor="start"><tspan>бе,</tspan></text><g class="Notations"><use id="note-3" x="2.9629629629629632" y="11.851851851851853" class=" note" xlink:href="#PodatusLower"></use><rect x="5.125925925925927" y="-5.9259259259259265" width="0.8" height="17.77777777777778" fill="#000" class="neumeLine"></rect><use id="note-4" x="5.9259259259259265" y="-5.925925925925926" class=" note" xlink:href="#PodatusUpper"></use></g></g><g transform="translate(141.13559922862373,0)" class="ChantNotationElement t"><text x="-6.853703640125415" y="35.51229666250724" class="lyric" text-anchor="start"><tspan style="">Па</tspan></text><g class="Notations"><use id="note-5" x="2.9629629629629632" y="-5.925925925925927" class=" note" xlink:href="#PunctumQuadratum"></use></g></g><g transform="translate(160.0772658317121,0)" class="ChantNotationElement t"><text x="-6.162037037037036" y="35.51229666250724" class="lyric" text-anchor="start"><tspan>не,</tspan></text><g class="Notations"><use id="note-6" x="2.9629629629629632" y="-5.925925925925927" class=" note" xlink:href="#PunctumQuadratum"></use><use id="note-7" x="11.851851851851853" y="-5.925925925925927" class=" note" xlink:href="#PunctumQuadratum"></use></g></g><g transform="translate(187.33343117682173,0)" class="ChantNotationElement t"><g class="Notations"><rect x="0" y="-23.703703703703706" width="0.8" height="11.851851851851853" fill="#000" class="dividerLine"></rect></g></g><g transform="translate(200.57478170711653,0)" class="ChantNotationElement t"><text x="-6.7120372277719" y="35.51229666250724" class="lyric" text-anchor="start"><tspan>узь</tspan><tspan>-</tspan></text><g class="Notations"><use id="note-8" x="2.9629629629629632" y="-5.925925925925927" class=" note" xlink:href="#PunctumQuadratum"></use></g></g><g transform="translate(221.18656754429486,0)" class="ChantNotationElement t"><text x="-3.1620370370370368" y="35.51229666250724" class="lyric" text-anchor="start"><tspan>ні</tspan><tspan>-</tspan></text><g class="Notations"><use id="note-9" x="2.9629629629629632" y="-5.925925925925927" class=" note" xlink:href="#PunctumQuadratum"></use></g></g><g transform="translate(240.81602779483893,0)" class="ChantNotationElement t"><text x="-5.228703640125415" y="35.51229666250724" class="lyric" text-anchor="start"><tspan>ма</tspan><tspan>-</tspan></text><g class="Notations"><use id="note-10" x="2.9629629629629632" y="-5.925925925925927" class=" note" xlink:href="#PunctumQuadratum"></use></g></g><g transform="translate(259.882582531808,0)" class="ChantNotationElement t"><text x="-2.3120371324044684" y="35.51229666250724" class="lyric" text-anchor="start"><tspan>ю</tspan></text><g class="Notations"><use id="note-11" x="2.9629629629629632" y="-5.925925925925927" class=" note" xlink:href="#PunctumQuadratum"></use></g></g><g transform="translate(278.24985898802873,0)" class="ChantNotationElement t"><text x="-0.6120370847207526" y="35.51229666250724" class="lyric" text-anchor="start"><tspan>я</tspan></text><g class="Notations"><use id="note-12" x="2.9629629629629632" y="-5.925925925925927" class=" note" xlink:href="#PunctumQuadratum"></use></g></g><g transform="translate(296.61713544424947,0)" class="ChantNotationElement t"><text x="-4.17870392622771" y="35.51229666250724" class="lyric" text-anchor="start"><tspan>ду</tspan><tspan>-</tspan></text><g class="Notations"><use x="2.9629629629629632" y="-5.925925925925927" class=" note" xlink:href="#PunctumQuadratum" id="note-13"></use></g></g><g transform="translate(317.47726229282614,0)" class="ChantNotationElement t"><text x="-6.070370815418384" y="35.51229666250724" class="lyric" text-anchor="start"><tspan>шу</tspan></text><g class="Notations"><use id="note-14" x="2.9629629629629632" y="0" class=" note" xlink:href="#PunctumQuadratum"></use></g></g><g transform="translate(339.0855958804726,0)" class="ChantNotationElement t"><text x="-5.228703640125415" y="35.51229666250724" class="lyric" text-anchor="start"><tspan>ма</tspan><tspan>-</tspan></text><g class="Notations"><use id="note-15" x="2.9629629629629632" y="5.9259259259259265" class=" note" xlink:href="#PunctumQuadratum"></use></g></g><g transform="translate(359.3717793880783,0)" class="ChantNotationElement t"><text x="-4.1537038308602785" y="35.51229666250724" class="lyric" text-anchor="start"><tspan>ю.</tspan></text><g class="Notations"><use id="note-16" x="2.9629629629629632" y="-5.925925925925927" class=" note" xlink:href="#PunctumQuadratum"></use><use id="note-17" x="8.88888888888889" y="-11.851851851851853" class=" note" xlink:href="#PunctumQuadratum"></use><use id="note-18" x="14.814814814814817" y="-5.925925925925927" class=" note" xlink:href="#PunctumQuadratum"></use><use x="17.8962962962963" y="-1.481481481481482" class="" xlink:href="#Mora"></use></g></g><g transform="translate(393.40626003262037,0)" class="ChantNotationElement t"><g class="Notations"><rect x="0" y="-11.851851851851853" width="0.8" height="23.703703703703706" fill="#000" class="dividerLine"></rect></g></g><g transform="translate(406.0777777141994,0)" class="ChantNotationElement t"><text x="-5.695370815418384" y="35.51229666250724" class="lyric" text-anchor="start"><tspan>Бо</tspan></text><g class="Notations"><use id="note-19" x="2.9629629629629632" y="0" class=" note" xlink:href="#PunctumQuadratum"></use></g></g><g transform="translate(423.41944488949235,0)" class="ChantNotationElement t"><text x="-5.720370433948657" y="35.51229666250724" class="lyric" text-anchor="start"><tspan>жа</tspan></text><g class="Notations"><use id="note-20" x="2.9629629629629632" y="-5.925925925925927" class=" note" xlink:href="#PunctumQuadratum"></use></g></g><g transform="translate(447.0666666666666,0)" class="ChantNotationElement t"><text x="-7.617592211122865" y="35.51229666250724" class="lyric" text-anchor="start"><tspan>мой,</tspan></text><g class="Notations"><use id="note-21" x="2.9629629629629632" y="-11.851851851851853" class=" note" xlink:href="#PunctumQuadratum"></use><use id="note-22" x="11.851851851851853" y="-11.851851851851853" class=" note" xlink:href="#PunctumQuadratum"></use></g></g><g transform="translate(477.4074074074074,0)" class="ChantNotationElement t"><g class="Notations"><use x="0" y="-11.851851851851853" class="" xlink:href="#CustosShort"></use></g></g></g><g transform="translate(0,182.6617622092918)" class="chantLine"><g class="staffLines"><rect x="0" y="-17.77777777777778" width="480" height="35.55555555555556" fill="none"></rect><line x1="0" y1="-17.77777777777778" x2="480" y2="-17.77777777777778" stroke="#000000" class="staffLine" stroke-width="0.8"></line><line x1="0" y1="-5.9259259259259265" x2="480" y2="-5.9259259259259265" stroke="#000000" class="staffLine" stroke-width="0.8"></line><line x1="0" y1="5.9259259259259265" x2="480" y2="5.9259259259259265" stroke="#000000" class="staffLine" stroke-width="0.8"></line><line x1="0" y1="17.77777777777778" x2="480" y2="17.77777777777778" stroke="#000000" class="staffLine" stroke-width="0.8"></line></g><g transform="translate(0,0)" class="ChantNotationElement t"><g class="Notations"><use x="0" y="-5.925925925925926" class="" xlink:href="#DoClef"></use></g></g><g transform="translate(17.966156838266038,0)" class="ChantNotationElement t"><text x="-4.3953701478463625" y="36.76408925509983" class="lyric" text-anchor="start"><tspan>на</tspan></text><g class="Notations"><use id="note-23" x="2.9629629629629632" y="-11.851851851851853" class=" note" xlink:href="#PunctumQuadratum"></use></g></g><g transform="translate(39.49949013981023,0)" class="ChantNotationElement t"><text x="-6.828704021595142" y="36.76408925509983" class="lyric" text-anchor="start"><tspan>Ця</tspan><tspan>-</tspan></text><g class="Notations"><use id="note-24" x="2.9629629629629632" y="-11.851851851851853" class=" note" xlink:href="#PunctumQuadratum"></use></g></g><g transform="translate(60.669321318657374,0)" class="ChantNotationElement t"><text x="-3.9370371324044684" y="36.76408925509983" class="lyric" text-anchor="start"><tspan>бе</tspan></text><g class="Notations"><use id="note-25" x="2.9629629629629632" y="-11.851851851851853" class=" note" xlink:href="#PunctumQuadratum"></use></g></g><g transform="translate(82.3026550016713,0)" class="ChantNotationElement t"><text x="-7.387037418506763" y="36.76408925509983" class="lyric" text-anchor="start"><tspan>спа</tspan></text><g class="Notations"><use id="note-26" x="2.9629629629629632" y="-5.925925925925927" class=" note" xlink:href="#PunctumQuadratum"></use></g></g><g transform="translate(102.88598897078751,0)" class="ChantNotationElement t"><text x="-7.270370624683521" y="36.76408925509983" class="lyric" text-anchor="start"><tspan>дзя</tspan><tspan>-</tspan></text><g class="Notations"><use id="note-27" x="2.9629629629629632" y="0" class=" note" xlink:href="#PunctumQuadratum"></use></g></g><g transform="translate(123.1702606580025,0)" class="ChantNotationElement t"><text x="-2.3120371324044684" y="36.76408925509983" class="lyric" text-anchor="start"><tspan>ю</tspan><tspan>-</tspan></text><g class="Notations"><use id="note-28" x="2.9629629629629632" y="-11.851851851851853" class=" note" xlink:href="#PodatusLower"></use><use id="note-29" x="5.9259259259259265" y="-17.77777777777778" class=" note" xlink:href="#PodatusUpper"></use></g></g><g transform="translate(141.13641749626854,0)" class="ChantNotationElement t"><text x="-3.419444253709581" y="36.76408925509983" class="lyric" text-anchor="start"><tspan>ся;</tspan></text><g class="Notations"><use id="note-30" x="2.9629629629629632" y="-11.851851851851853" class=" note" xlink:href="#PunctumQuadratum"></use><use x="6.044444444444445" y="-11.851851851851853" class="" xlink:href="#Mora"></use></g></g><g transform="translate(162.93629856190265,0)" class="ChantNotationElement t"><g class="Notations"><rect x="0" y="-23.703703703703706" width="0.8" height="11.851851851851853" fill="#000" class="dividerLine"></rect></g></g><g transform="translate(175.22506851642564,0)" class="ChantNotationElement t"><text x="-4.7787038308602785" y="36.76408925509983" class="lyric" text-anchor="start"><tspan>ня</tspan></text><g class="Notations"><use id="note-31" x="2.9629629629629632" y="-11.851851851851853" class=" note" xlink:href="#PunctumQuadratum"></use></g></g><g transform="translate(193.70006889789536,0)" class="ChantNotationElement t"><text x="-7.770370624683521" y="36.76408925509983" class="lyric" text-anchor="start"><tspan>хай</tspan></text><g class="Notations"><use id="note-32" x="2.9629629629629632" y="-5.925925925925927" class=" note" xlink:href="#PunctumQuadratum"></use></g></g><g transform="translate(216.55840248554185,0)" class="ChantNotationElement t"><text x="-4.7787038308602785" y="36.76408925509983" class="lyric" text-anchor="start"><tspan>ня</tspan></text><g class="Notations"><use id="note-33" x="2.9629629629629632" y="-11.851851851851853" class=" note" xlink:href="#PunctumQuadratum"></use></g></g><g transform="translate(236.33129472790753,0)" class="ChantNotationElement t"><text x="-4.120370529316089" y="36.76408925509983" class="lyric" text-anchor="start"><tspan>бу</tspan><tspan>-</tspan></text><g class="Notations"><use id="note-34" x="2.9629629629629632" y="-17.77777777777778" class=" note" xlink:href="#PunctumQuadratum"></use><use id="note-35" x="11.851851851851853" y="-17.77777777777778" class=" note" xlink:href="#PunctumQuadratum"></use></g></g><g transform="translate(263.18634045506246,0)" class="ChantNotationElement t"><text x="-4.17870392622771" y="36.76408925509983" class="lyric" text-anchor="start"><tspan>ду</tspan></text><g class="Notations"><use id="note-36" x="2.9629629629629632" y="-11.851851851851853" class=" note" xlink:href="#PunctumQuadratum"></use></g></g><g transform="translate(281.1524972933285,0)" class="ChantNotationElement t"><text x="-0.22870364012541566" y="36.76408925509983" class="lyric" text-anchor="start"><tspan>а</tspan><tspan>-</tspan></text><g class="Notations"><use id="note-37" x="2.9629629629629632" y="-5.925925925925927" class=" note" xlink:href="#PunctumQuadratum"></use></g></g><g transform="translate(299.11865413159455,0)" class="ChantNotationElement t"><text x="-3.3620368463021735" y="36.76408925509983" class="lyric" text-anchor="start"><tspan>са</tspan></text><g class="Notations"><use id="note-38" x="2.9629629629629632" y="0" class=" note" xlink:href="#PunctumQuadratum"></use></g></g><g transform="translate(318.47698771924104,0)" class="ChantNotationElement t"><text x="-10.070370815418384" y="36.76408925509983" class="lyric" text-anchor="start"><tspan>ром</tspan></text><g class="Notations"><use id="note-39" x="2.9629629629629632" y="11.851851851851853" class=" note" xlink:href="#PunctumQuadratum"></use></g></g><g transform="translate(338.4769881960782,0)" class="ChantNotationElement t"><text x="-4.003703735492847" y="36.76408925509983" class="lyric" text-anchor="start"><tspan>ле</tspan><tspan>-</tspan></text><g class="Notations"><use id="note-40" x="2.9629629629629632" y="5.9259259259259265" class=" note" xlink:href="#PunctumQuadratum"></use></g></g><g transform="translate(358.88529311616765,0)" class="ChantNotationElement t"><text x="-5.7444440629747175" y="36.76408925509983" class="lyric" text-anchor="start"><tspan>ны.</tspan></text><g class="Notations"><use id="note-41" x="2.9629629629629632" y="11.851851851851853" class=" note" xlink:href="#PunctumQuadratum"></use><use x="6.044444444444445" y="11.851851851851853" class="" xlink:href="#Mora"></use></g></g><g transform="translate(380.6851741818018,0)" class="ChantNotationElement t"><g class="Notations"><rect x="0" y="-17.77777777777778" width="0.8" height="35.55555555555556" fill="#000" class="dividerLine"></rect></g></g><g transform="translate(392.9739441363248,0)" class="ChantNotationElement t"><text x="-7.095370433948657" y="36.76408925509983" class="lyric" text-anchor="start"><tspan>Ня</tspan></text><g class="Notations"><use id="note-42" x="2.9629629629629632" y="17.77777777777778" class=" note" xlink:href="#PodatusLower"></use><rect x="5.125925925925927" y="5.9259259259259265" width="0.8" height="11.851851851851851" fill="#000" class="neumeLine"></rect><use id="note-43" x="5.9259259259259265" y="5.9259259259259265" class=" note" xlink:href="#PodatusUpper"></use></g></g><g transform="translate(413.7656111208829,0)" class="ChantNotationElement t"><text x="-7.770370624683521" y="36.76408925509983" class="lyric" text-anchor="start"><tspan>хай</tspan></text><g class="Notations"><use id="note-44" x="2.9629629629629632" y="-5.925925925925927" class=" note" xlink:href="#PunctumQuadratum"></use></g></g><g transform="translate(436.16561121625034,0)" class="ChantNotationElement t"><text x="-4.320370338581226" y="36.76408925509983" class="lyric" text-anchor="start"><tspan>не</tspan></text><g class="Notations"><use id="note-45" x="2.9629629629629632" y="-5.925925925925927" class=" note" xlink:href="#PunctumQuadratum"></use></g></g><g transform="translate(455.80130370370364,0)" class="ChantNotationElement t"><text x="-4.3953701478463625" y="36.76408925509983" class="lyric" text-anchor="start"><tspan>на</tspan><tspan>-</tspan></text><g class="Notations"><use id="note-46" x="2.9629629629629632" y="-5.925925925925927" class=" note" xlink:href="#PunctumQuadratum"></use></g></g><g transform="translate(477.25315555555557,0)" class="ChantNotationElement t"><g class="Notations"><use x="0" y="-5.925925925925927" class="" xlink:href="#CustosLong"></use></g></g></g><g transform="translate(0,255.43948072781032)" class="chantLine"><g class="staffLines"><rect x="0" y="-17.77777777777778" width="480" height="35.55555555555556" fill="none"></rect><line x1="0" y1="-17.77777777777778" x2="480" y2="-17.77777777777778" stroke="#000000" class="staffLine" stroke-width="0.8"></line><line x1="0" y1="-5.9259259259259265" x2="480" y2="-5.9259259259259265" stroke="#000000" class="staffLine" stroke-width="0.8"></line><line x1="0" y1="5.9259259259259265" x2="480" y2="5.9259259259259265" stroke="#000000" class="staffLine" stroke-width="0.8"></line><line x1="0" y1="17.77777777777778" x2="480" y2="17.77777777777778" stroke="#000000" class="staffLine" stroke-width="0.8"></line></g><g transform="translate(0,0)" class="ChantNotationElement t"><g class="Notations"><use x="0" y="-5.925925925925926" class="" xlink:href="#DoClef"></use></g></g><g transform="translate(19.651482993373175,0)" class="ChantNotationElement t"><text x="-10.362036846302173" y="35.51229666250724" class="lyric" text-anchor="start"><tspan>сьмі</tspan></text><g class="Notations"><use id="note-47" x="2.9629629629629632" y="-5.925925925925927" class=" note" xlink:href="#PunctumQuadratum"></use></g></g><g transform="translate(39.484816008815066,0)" class="ChantNotationElement t"><text x="-3.5453702432137946" y="35.51229666250724" class="lyric" text-anchor="start"><tspan>ха</tspan><tspan>-</tspan></text><g class="Notations"><use id="note-48" x="2.9629629629629632" y="-5.925925925925927" class=" note" xlink:href="#PunctumQuadratum"></use></g></g><g transform="translate(59.136299002188245,0)" class="ChantNotationElement t"><text x="-2.3120371324044684" y="35.51229666250724" class="lyric" text-anchor="start"><tspan>ю</tspan><tspan>-</tspan></text><g class="Notations"><use id="note-49" x="2.9629629629629632" y="-5.925925925925927" class=" note" xlink:href="#PunctumQuadratum"></use></g></g><g transform="translate(80.43926554838106,0)" class="ChantNotationElement t"><text x="-8.445370815418384" y="35.51229666250724" class="lyric" text-anchor="start"><tspan>цца</tspan></text><g class="Notations"><use x="2.9629629629629632" y="0" class=" note" xlink:href="#PunctumQuadratum" id="note-50"></use></g></g><g transform="translate(100.09074854175422,0)" class="ChantNotationElement t"><g class="Notations"><rect x="0" y="-23.703703703703706" width="0.8" height="11.851851851851853" fill="#000" class="dividerLine"></rect></g></g><g transform="translate(114.61630560920148,0)" class="ChantNotationElement t"><text x="-4.3953701478463625" y="35.51229666250724" class="lyric" text-anchor="start"><tspan>на</tspan><tspan>-</tspan></text><g class="Notations"><use id="note-51" x="2.9629629629629632" y="-5.925925925925927" class=" note" xlink:href="#PunctumQuadratum"></use></g></g><g transform="translate(134.95616906765363,0)" class="ChantNotationElement t"><text x="-3.8703705293160895" y="35.51229666250724" class="lyric" text-anchor="start"><tspan>да</tspan></text><g class="Notations"><use id="note-52" x="2.9629629629629632" y="-5.925925925925927" class=" note" xlink:href="#PunctumQuadratum"></use></g></g><g transform="translate(159.29783576610944,0)" class="ChantNotationElement t"><text x="-10.162037037037036" y="35.51229666250724" class="lyric" text-anchor="start"><tspan>мно</tspan></text><g class="Notations"><use id="note-53" x="2.9629629629629632" y="-5.925925925925927" class=" note" xlink:href="#PunctumQuadratum"></use></g></g><g transform="translate(177.69783586147688,0)" class="ChantNotationElement t"><text x="-2.3120371324044684" y="35.51229666250724" class="lyric" text-anchor="start"><tspan>ю</tspan></text><g class="Notations"><use id="note-54" x="2.9629629629629632" y="-5.925925925925927" class=" note" xlink:href="#PunctumQuadratum"></use></g></g><g transform="translate(197.43213634582668,0)" class="ChantNotationElement t"><text x="-4.387036941669605" y="35.51229666250724" class="lyric" text-anchor="start"><tspan>во</tspan><tspan>-</tspan></text><g class="Notations"><use id="note-55" x="2.9629629629629632" y="-5.925925925925927" class=" note" xlink:href="#PunctumQuadratum"></use></g></g><g transform="translate(217.9040640875544,0)" class="ChantNotationElement t"><text x="-4.220370433948657" y="35.51229666250724" class="lyric" text-anchor="start"><tspan>ра</tspan><tspan>-</tspan></text><g class="Notations"><use id="note-56" x="2.9629629629629632" y="-5.925925925925927" class=" note" xlink:href="#PunctumQuadratum"></use></g></g><g transform="translate(237.55554708092757,0)" class="ChantNotationElement t"><text x="-1.828703544757984" y="35.51229666250724" class="lyric" text-anchor="start"><tspan>гі</tspan></text><g class="Notations"><use id="note-57" x="2.9629629629629632" y="-11.851851851851853" class=" note" xlink:href="#PunctumQuadratum"></use></g></g><g transform="translate(257.4283539098138,0)" class="ChantNotationElement t"><text x="-5.228703640125415" y="35.51229666250724" class="lyric" text-anchor="start"><tspan>ма</tspan><tspan>-</tspan></text><g class="Notations"><use id="note-58" x="2.9629629629629632" y="-17.77777777777778" class=" note" xlink:href="#PunctumQuadratum"></use></g></g><g transform="translate(277.36558245717845,0)" class="ChantNotationElement t"><text x="-1.9953705293160895" y="35.51229666250724" class="lyric" text-anchor="start"><tspan>е.</tspan></text><g class="Notations"><use id="note-59" x="2.9629629629629632" y="-11.851851851851853" class=" note" xlink:href="#PunctumQuadratum"></use></g></g><g transform="translate(297.0170654505516,0)" class="ChantNotationElement t"><g class="Notations"><rect x="0" y="-11.851851851851853" width="0.8" height="23.703703703703706" fill="#000" class="dividerLine"></rect></g></g><g transform="translate(311.5426225179989,0)" class="ChantNotationElement t"><text x="-5.695370815418384" y="35.51229666250724" class="lyric" text-anchor="start"><tspan>Бо</tspan></text><g class="Notations"><use id="note-60" x="2.9629629629629632" y="-17.77777777777778" class=" note" xlink:href="#PunctumQuadratum"></use></g></g><g transform="translate(332.7360723639524,0)" class="ChantNotationElement t"><text x="-4.7787038308602785" y="35.51229666250724" class="lyric" text-anchor="start"><tspan>ня</tspan></text><g class="Notations"><use id="note-61" x="2.9629629629629632" y="-11.851851851851853" class=" note" xlink:href="#PunctumQuadratum"></use></g></g><g transform="translate(353.32073802086154,0)" class="ChantNotationElement t"><text x="-4.120370529316089" y="35.51229666250724" class="lyric" text-anchor="start"><tspan>бу</tspan></text><g class="Notations"><use id="note-62" x="2.9629629629629632" y="-5.925925925925927" class=" note" xlink:href="#PunctumQuadratum"></use></g></g><g transform="translate(374.8874051007871,0)" class="ChantNotationElement t"><text x="-11.52037062468352" y="35.51229666250724" class="lyric" text-anchor="start"><tspan>дуць</tspan></text><g class="Notations"><use id="note-63" x="2.9629629629629632" y="-5.925925925925927" class=" note" xlink:href="#PunctumQuadratum"></use></g></g><g transform="translate(396.9457384976987,0)" class="ChantNotationElement t"><text x="-0.22870364012541566" y="35.51229666250724" class="lyric" text-anchor="start"><tspan>а</tspan><tspan>-</tspan></text><g class="Notations"><use id="note-64" x="2.9629629629629632" y="-5.925925925925927" class=" note" xlink:href="#PunctumQuadratum"></use></g></g><g transform="translate(416.5972214910719,0)" class="ChantNotationElement t"><text x="-3.3620368463021735" y="35.51229666250724" class="lyric" text-anchor="start"><tspan>са</tspan></text><g class="Notations"><use id="note-65" x="2.9629629629629632" y="-5.925925925925927" class=" note" xlink:href="#PunctumQuadratum"></use></g></g><g transform="translate(435.95555507871836,0)" class="ChantNotationElement t"><text x="-10.070370815418384" y="35.51229666250724" class="lyric" text-anchor="start"><tspan>ром</tspan></text><g class="Notations"><use id="note-66" x="2.9629629629629632" y="-5.925925925925927" class=" note" xlink:href="#PunctumQuadratum"></use></g></g><g transform="translate(455.9555555555555,0)" class="ChantNotationElement t"><text x="-4.003703735492847" y="35.51229666250724" class="lyric" text-anchor="start"><tspan>ле</tspan><tspan>-</tspan></text><g class="Notations"><use id="note-67" x="2.9629629629629632" y="-5.925925925925927" class=" note" xlink:href="#PunctumQuadratum"></use></g></g><g transform="translate(477.4074074074074,0)" class="ChantNotationElement t"><g class="Notations"><use x="0" y="0" class="" xlink:href="#CustosShort"></use></g></g></g><g transform="translate(0,326.96540665373624)" class="chantLine"><g class="staffLines"><rect x="0" y="-17.77777777777778" width="480" height="35.55555555555556" fill="none"></rect><line x1="0" y1="-17.77777777777778" x2="480" y2="-17.77777777777778" stroke="#000000" class="staffLine" stroke-width="0.8"></line><line x1="0" y1="-5.9259259259259265" x2="480" y2="-5.9259259259259265" stroke="#000000" class="staffLine" stroke-width="0.8"></line><line x1="0" y1="5.9259259259259265" x2="480" y2="5.9259259259259265" stroke="#000000" class="staffLine" stroke-width="0.8"></line><line x1="0" y1="17.77777777777778" x2="480" y2="17.77777777777778" stroke="#000000" class="staffLine" stroke-width="0.8"></line></g><g transform="translate(0,0)" class="ChantNotationElement t"><g class="Notations"><use x="0" y="-5.925925925925926" class="" xlink:href="#DoClef"></use></g></g><g transform="translate(19.89804661109955,0)" class="ChantNotationElement t"><text x="-6.095370433948657" y="35.51229666250724" class="lyric" text-anchor="start"><tspan>ны</tspan><tspan>-</tspan></text><g class="Notations"><use id="note-68" x="2.9629629629629632" y="0" class=" note" xlink:href="#PunctumQuadratum"></use></g></g><g transform="translate(39.87034869953768,0)" class="ChantNotationElement t"><text x="-0.6120370847207526" y="35.51229666250724" class="lyric" text-anchor="start"><tspan>я</tspan></text><g class="Notations"><use id="note-69" x="2.9629629629629632" y="5.9259259259259265" class=" note" xlink:href="#PunctumQuadratum"></use></g></g><g transform="translate(59.768395310637224,0)" class="ChantNotationElement t"><text x="-3.950926180239076" y="35.51229666250724" class="lyric" text-anchor="start"><tspan>ўсе,</tspan></text><g class="Notations"><use id="note-70" x="2.9629629629629632" y="-5.925925925925927" class=" note" xlink:href="#PunctumQuadratum"></use><use id="note-71" x="11.851851851851853" y="-5.925925925925927" class=" note" xlink:href="#PunctumQuadratum"></use></g></g><g transform="translate(88.55533081062566,0)" class="ChantNotationElement t"><g class="Notations"><rect x="0" y="-23.703703703703706" width="0.8" height="11.851851851851853" fill="#000" class="dividerLine"></rect></g></g><g transform="translate(103.3274514957993,0)" class="ChantNotationElement t"><text x="-7.720370433948657" y="35.51229666250724" class="lyric" text-anchor="start"><tspan>хто</tspan></text><g class="Notations"><use id="note-72" x="2.9629629629629632" y="-5.925925925925927" class=" note" xlink:href="#PunctumQuadratum"></use></g></g><g transform="translate(125.75245120969701,0)" class="ChantNotationElement t"><text x="-4.3953701478463625" y="35.51229666250724" class="lyric" text-anchor="start"><tspan>на</tspan></text><g class="Notations"><use id="note-73" x="2.9629629629629632" y="-5.925925925925927" class=" note" xlink:href="#PunctumQuadratum"></use></g></g><g transform="translate(147.28578451124122,0)" class="ChantNotationElement t"><text x="-6.828704021595142" y="35.51229666250724" class="lyric" text-anchor="start"><tspan>Ця</tspan><tspan>-</tspan></text><g class="Notations"><use id="note-74" x="2.9629629629629632" y="-5.925925925925927" class=" note" xlink:href="#PunctumQuadratum"></use></g></g><g transform="translate(168.61192106155139,0)" class="ChantNotationElement t"><text x="-3.9370371324044684" y="35.51229666250724" class="lyric" text-anchor="start"><tspan>бе</tspan></text><g class="Notations"><use id="note-75" x="2.9629629629629632" y="-5.925925925925927" class=" note" xlink:href="#PunctumQuadratum"></use></g></g><g transform="translate(190.2452547445653,0)" class="ChantNotationElement t"><text x="-7.387037418506763" y="35.51229666250724" class="lyric" text-anchor="start"><tspan>спа</tspan></text><g class="Notations"><use id="note-76" x="2.9629629629629632" y="-5.925925925925927" class=" note" xlink:href="#PunctumQuadratum"></use></g></g><g transform="translate(210.8285887136815,0)" class="ChantNotationElement t"><text x="-7.270370624683521" y="35.51229666250724" class="lyric" text-anchor="start"><tspan>дзя</tspan></text><g class="Notations"><use id="note-77" x="2.9629629629629632" y="5.9259259259259265" class=" note" xlink:href="#PunctumQuadratum"></use></g></g><g transform="translate(228.28692220596056,0)" class="ChantNotationElement t"><text x="-4.262036941669605" y="35.51229666250724" class="lyric" text-anchor="start"><tspan>ец</tspan><tspan>-</tspan></text><g class="Notations"><rect x="0" y="0" width="0.8" height="9.25085521885522" fill="#000" class="neumeLine"></rect><use id="note-78" x="2.9629629629629632" y="0" class=" note" xlink:href="#PunctumQuadratum"></use><use id="note-79" x="8.88888888888889" y="5.9259259259259265" class=" note" xlink:href="#PunctumQuadratum"></use></g></g><g transform="translate(254.11089474298606,0)" class="ChantNotationElement t"><text x="-6.178703449390552" y="35.51229666250724" class="lyric" text-anchor="start"><tspan>ца.</tspan></text><g class="Notations"><use id="note-80" x="2.9629629629629632" y="11.851851851851853" class=" note" xlink:href="#PunctumQuadratum"></use></g></g><g transform="translate(274.0089413540856,0)" class="ChantNotationElement t"><g class="Notations"><rect x="0" y="-17.77777777777778" width="0.8" height="35.55555555555556" fill="#000" class="dividerLine"></rect><rect x="5.125925925925927" y="-17.77777777777778" width="0.8" height="35.55555555555556" fill="#000" class="dividerLine"></rect></g></g><g transform="translate(293.9069879651852,0)" class="ChantNotationElement t"><g class="Notations"><use id="note-81" x="2.9629629629629632" y="-5.925925925925927" class=" note" xlink:href="#PunctumCavum"></use></g></g><g transform="translate(313.80503457628475,0)" class="ChantNotationElement t"><g class="Notations"><use id="note-82" x="2.9629629629629632" y="-11.851851851851853" class=" note" xlink:href="#PunctumQuadratum"></use></g></g><g transform="translate(333.70308118738427,0)" class="ChantNotationElement t"><g class="Notations"><use id="note-83" x="2.9629629629629632" y="-5.925925925925927" class=" note" xlink:href="#PunctumQuadratum"></use><use x="6.044444444444445" y="-10.370370370370372" class="" xlink:href="#Mora"></use></g></g><g transform="translate(357.34636852480617,0)" class="ChantNotationElement t"><g class="Notations"><rect x="0" y="-17.77777777777778" width="0.8" height="35.55555555555556" fill="#000" class="dividerLine"></rect></g></g><g transform="translate(371.4785447511169,0)" class="ChantNotationElement t"><g class="Notations"><use id="note-84" x="2.9629629629629632" y="-5.925925925925927" class=" note" xlink:href="#PunctumCavum"></use></g></g><g transform="translate(391.37659136221646,0)" class="ChantNotationElement t"><g class="Notations"><use x="2.9629629629629632" y="0" class=" note" xlink:href="#PunctumQuadratum" id="note-85"></use></g></g><g transform="translate(411.274637973316,0)" class="ChantNotationElement t"><g class="Notations"><use id="note-86" x="2.9629629629629632" y="-5.925925925925927" class=" note" xlink:href="#PunctumQuadratum"></use></g></g><g transform="translate(431.17268458441555,0)" class="ChantNotationElement t"><g class="Notations"><use id="note-87" x="2.9629629629629632" y="5.9259259259259265" class=" note" xlink:href="#PunctumQuadratum"></use></g></g><g transform="translate(451.0707311955151,0)" class="ChantNotationElement t"><g class="Notations"><use id="note-88" x="2.9629629629629632" y="11.851851851851853" class=" note" xlink:href="#PunctumQuadratum"></use><use x="6.044444444444445" y="11.851851851851853" class="" xlink:href="#Mora"></use></g></g><g transform="translate(474.0740740740741,0)" class="ChantNotationElement t"><g class="Notations"><rect x="0" y="-17.77777777777778" width="0.8" height="35.55555555555556" fill="#000" class="dividerLine"></rect><rect x="5.125925925925927" y="-17.77777777777778" width="0.8" height="35.55555555555556" fill="#000" class="dividerLine"></rect></g></g></g></g></svg>